<?xml version="1.0" encoding="UTF-8" standalone="no"?>
<svg
   xmlns:osb="http://www.openswatchbook.org/uri/2009/osb"
   xmlns:dc="http://purl.org/dc/elements/1.1/"
   xmlns:cc="http://creativecommons.org/ns#"
   xmlns:rdf="http://www.w3.org/1999/02/22-rdf-syntax-ns#"
   xmlns:svg="http://www.w3.org/2000/svg"
   xmlns="http://www.w3.org/2000/svg"
   xmlns:sodipodi="http://sodipodi.sourceforge.net/DTD/sodipodi-0.dtd"
   xmlns:inkscape="http://www.inkscape.org/namespaces/inkscape"
   enable-background="new 0 0 55 55"
   height="55px"
   version="1.1"
   viewBox="0 0 55 55"
   width="55px"
   x="0px"
   xml:space="preserve"
   y="0px"
   id="svg2"
   inkscape:version="0.48.4 r9939"
   sodipodi:docname="score_card.svg"><metadata
   id="metadata26"><rdf:RDF><cc:Work
       rdf:about=""><dc:format>image/svg+xml</dc:format><dc:type
         rdf:resource="http://purl.org/dc/dcmitype/StillImage" /><dc:title /></cc:Work></rdf:RDF></metadata><defs
   id="defs24"><linearGradient
     id="linearGradient3953"
     osb:paint="solid"><stop
       style="stop-color:#000000;stop-opacity:1;"
       offset="0"
       id="stop3955" /></linearGradient><linearGradient
     id="linearGradient3945"
     osb:paint="gradient"><stop
       style="stop-color:#000000;stop-opacity:1;"
       offset="0"
       id="stop3947" /><stop
       style="stop-color:#000000;stop-opacity:0;"
       offset="1"
       id="stop3949" /></linearGradient></defs><sodipodi:namedview
   pagecolor="#ffffff"
   bordercolor="#666666"
   borderopacity="1"
   objecttolerance="10"
   gridtolerance="10"
   guidetolerance="10"
   inkscape:pageopacity="0"
   inkscape:pageshadow="2"
   inkscape:window-width="1280"
   inkscape:window-height="965"
   id="namedview22"
   showgrid="false"
   inkscape:snap-bbox="true"
   inkscape:snap-global="false"
   inkscape:zoom="4.2909091"
   inkscape:cx="28.432204"
   inkscape:cy="27.5"
   inkscape:window-x="0"
   inkscape:window-y="27"
   inkscape:window-maximized="1"
   inkscape:current-layer="svg2" /><polygon
   transform="matrix(2.1459405,0,0,1.7264886,-44.553605,-11.908756)"
   points="32.113,8.928 22.727,18.311 22.727,35.914 43.449,35.914 43.449,8.928 "
   id="polygon14-7"
   style="fill:#ffffff;stroke:#010101;stroke-width:3;display:block" /><rect
   style="fill:none;fill-opacity:1"
   id="rect3023"
   width="13.283898"
   height="8.3898306"
   x="-79.237289"
   y="-27.966103" /><path
   style="fill:#ff0000;fill-opacity:1"
   id="path3041"
   d="m 31.000977,25.407959 c 0.478689,0.784412 0.998689,1.543656 1.532366,2.291565 0.317987,0.443769 0.631089,0.684518 1.182825,0.698398 0.615623,-0.143685 1.165322,-0.494208 1.709322,-0.80311 0.231392,-0.131392 0.92328,-0.529565 0.691798,-0.398334 -0.288669,0.163652 -0.575573,0.330397 -0.86336,0.495595 1.84936,-1.075737 3.660104,-2.211631 5.410311,-3.442101 0.857925,-0.597427 1.744101,-1.15234 2.622501,-1.718719 0,0 1.849758,-0.719572 1.849758,-0.719572 l 0,0 c -0.909561,0.576305 -1.829153,1.137417 -2.717581,1.746353 -1.737216,1.232155 -3.537768,2.365473 -5.373358,3.445356 -0.812003,0.471256 -1.623753,0.942949 -2.436011,1.413767 -0.35541,0.20601 -0.952281,0.554862 -1.329218,0.751892 -0.280221,0.146474 -0.608415,0.314435 -0.92281,0.389575 -0.103566,0.02475 -0.211805,0.02221 -0.317707,0.03332 -0.608883,-0.09381 -0.913266,-0.354825 -1.253053,-0.865144 -0.510075,-0.762058 -0.994725,-1.544179 -1.568223,-2.261153 0,0 1.78244,-1.057688 1.78244,-1.057688 z"
   inkscape:connector-curvature="0" /><path
   style="fill:#ff0000;fill-opacity:1"
   id="path3041-1"
   d="m 32.043798,12.290892 c 0.478689,0.784412 0.998689,1.543656 1.532366,2.291565 0.317987,0.443769 0.631089,0.684518 1.182825,0.698398 0.615623,-0.143685 1.165322,-0.494208 1.709322,-0.80311 0.231392,-0.131392 0.92328,-0.529565 0.691798,-0.398334 -0.288669,0.163652 -0.575573,0.330397 -0.86336,0.495595 1.84936,-1.075737 3.660104,-2.211631 5.410311,-3.442101 0.857925,-0.597427 1.744101,-1.1523396 2.622501,-1.7187186 0,0 1.849758,-0.719572 1.849758,-0.719572 l 0,0 c -0.909561,0.576305 -1.829153,1.137417 -2.717581,1.7463526 -1.737216,1.232155 -3.537768,2.365473 -5.373358,3.445356 -0.812003,0.471256 -1.623753,0.942949 -2.436011,1.413767 -0.35541,0.20601 -0.952281,0.554862 -1.329218,0.751892 -0.280221,0.146474 -0.608415,0.314435 -0.92281,0.389575 -0.103566,0.02475 -0.211805,0.02221 -0.317707,0.03332 -0.608883,-0.09381 -0.913266,-0.354825 -1.253053,-0.865144 -0.510075,-0.762058 -0.994725,-1.544179 -1.568223,-2.261153 0,0 1.78244,-1.057688 1.78244,-1.057688 z"
   inkscape:connector-curvature="0" /><text
   xml:space="preserve"
   style="font-size:14px;font-style:normal;font-weight:bold;line-height:125%;letter-spacing:0px;word-spacing:0px;fill:#ff0000;fill-opacity:1;stroke:none;font-family:Sans;-inkscape-font-specification:Sans Bold"
   x="30.762711"
   y="43.813557"
   id="text3977"
   sodipodi:linespacing="125%"><tspan
     sodipodi:role="line"
     id="tspan3979"
     x="30.762711"
     y="43.813557">x</tspan></text>

<rect
   style="fill:#000000;fill-opacity:1"
   id="rect4000"
   width="16.779661"
   height="1.1652542"
   x="10.25424"
   y="15.614407" /><rect
   style="fill:#000000;fill-opacity:1"
   id="rect4000-7"
   width="16.779661"
   height="1.1652542"
   x="10.72034"
   y="28.781782" /><rect
   style="fill:#000000;fill-opacity:1"
   id="rect4000-0"
   width="16.779661"
   height="1.1652542"
   x="11.186441"
   y="40.900421" /></svg>